<?xml version="1.0" encoding="utf-8"?>
<!-- Generator: Adobe Illustrator 22.0.0, SVG Export Plug-In . SVG Version: 6.00 Build 0)  -->
<svg version="1.1" id="Layer_1" xmlns="http://www.w3.org/2000/svg" xmlns:xlink="http://www.w3.org/1999/xlink" x="0px" y="0px"
	 viewBox="0 0 264.8 247.9" style="enable-background:new 0 0 264.8 247.9;" xml:space="preserve">
<style type="text/css">
	.st0{fill:#F2C87F;}
</style>
<g>
	<g>
		<path class="st0" d="M159.5,211.6c0-2.1,0-4.1,0-6.2c0-1.9-0.5-3.6-1.6-5.2c-1.2-1.7-0.8-2.6,1.1-2.8c3.8-0.3,7.6-0.3,11.3,0
			c2,0.2,2.4,1.1,1.2,2.8c-1.3,1.7-1.6,3.6-1.6,5.6c0,5.5,0,11,0,16.5c0,1.9-0.6,3.4-2.5,4.1c-19.1,7.4-38.2,0.8-45.1-18.3
			c-7.7-21.3,10.8-39.2,26.1-40.1c5-0.3,9.9,0.1,14.7,1.5c3.5,1,4.2,1.9,4.2,5.6c0,1.2,0,2.4-0.1,3.5c-0.3,1.7-1.3,2.1-2.6,1
			c-1.3-1.1-2.5-2.2-3.5-3.5c-6.5-7.3-17-5.3-22.1,2c-4.4,6.4-5.7,13.6-5.7,21.2c0,6,0.8,12,3.5,17.5c3,6.1,7.9,9.4,14.8,9.3
			c4.7-0.1,7.7-3.1,7.9-7.8C159.5,216,159.5,213.8,159.5,211.6z"/>
		<path class="st0" d="M198.5,168.7c4.6,0.1,9.2,1.1,13.7,1.9c2,0.4,2.5,1.5,1.6,3.3c-2.6,5.1-3.3,6.4-7.6,1.5
			c-2.6-3-5.9-4.5-10-3.3c-6.3,1.9-8.3,8.5-4.2,13.7c1.4,1.7,3.2,3.1,5.1,4.2c4.3,2.7,8.7,5.3,13,8c6.6,4.2,8.9,10,7.3,17.9
			c-1.3,6.5-6.5,11.2-13.6,12.5c-6.1,1.1-12.1,0-18-1c-5.7-1-5.8-1.3-3.1-6.4c0.3-0.5,0.6-1.1,0.9-1.6c1.1-1.5,2-1.7,3.4-0.3
			c1.1,1.1,2.2,2.3,3.2,3.5c3.5,3.8,8,4.8,12.3,2.7c4.3-2.2,6.5-7,5.4-11.8c-0.6-2.8-2.3-4.8-4.7-6.2c-4.7-2.9-9.5-5.8-14.2-8.8
			c-4.1-2.6-7.1-6.1-8-11c-1.9-9.4,4.2-17.6,13.8-18.4C196,168.8,197.2,168.8,198.5,168.7z"/>
		<path class="st0" d="M65.5,205.9c0-9.1,0-18.2,0-27.3c0-2.5-0.3-4.7-2.1-6.7c-1.2-1.4-0.7-2.5,1.2-2.6c4.1-0.1,8.1-0.1,12.2,0
			c1.8,0,2.4,1.2,1.2,2.6c-1.8,2.1-2,4.5-2,7.1c0,15.5,0,31,0,46.5c0,2.3-0.1,4.6-0.6,6.8c-1.8,7.6-7.5,12.5-15.4,12.9
			c-3.4,0.2-6.9,0.1-10.3,0.1c-0.9,0-2,0.1-2.6-0.9c-0.6-1.1,0.2-2,0.8-2.8c0.8-1.1,1.6-2.2,2.5-3.3c1.4-1.7,2.4-1.8,4-0.4
			c1,0.8,1.9,1.8,2.9,2.7c2.1,1.9,4.5,1.7,6.3-0.4c1-1.2,1.6-2.6,1.7-4.1c0.1-2.2,0.2-4.4,0.2-6.6C65.5,221.4,65.5,213.7,65.5,205.9
			L65.5,205.9z"/>
		<path class="st0" d="M106.6,198.4c0,6.7,0,13.4,0,20c0,2.4,0.4,4.6,2,6.6c1.3,1.6,0.8,2.8-1.3,2.9c-4,0.1-8,0.1-12,0
			c-2.1-0.1-2.6-1.3-1.3-2.9c1.5-1.8,1.9-3.7,1.9-5.9c0-13.7,0-27.4,0-41.1c0-2.2-0.4-4.2-1.9-6c-1.3-1.7-0.9-2.7,1.2-2.8
			c4-0.1,8-0.1,12,0c2.1,0.1,2.6,1.2,1.3,2.8c-1.5,1.9-2,4-2,6.3C106.6,185.1,106.6,191.8,106.6,198.4z"/>
	</g>
	<g>
		<path class="st0" d="M229.1,2.7c4.9,0.1,9.8-0.4,14.6,0.9c2.4,0.6,4.7,1.5,6.9,2.7c9.7,5.1,9.3,17.2,1.1,23
			c-0.3,0.2-0.7,0.5-1,0.7c-3.8,2.4-4,3.2-1.9,7.1c3,5.6,6.1,11.1,9.1,16.7c0.9,1.6,1.9,3.2,3.2,4.6c0.6,0.6,1.1,1.3,0.8,2.2
			c-0.3,0.8-1.2,0.9-1.9,1c-2.6,0-5.2,0.1-7.8,0c-2-0.1-3-1.4-3.8-3c-3.3-6.7-6.6-13.5-9.9-20.2c-0.5-1-1-2-1.7-2.8
			c-1.1-1.4-2.7-1.9-4.4-1.3c-1.6,0.5-2.1,1.8-2.2,3.4c0,5.6,0,11.2,0,16.7c0,1.7,0.8,3,1.8,4.3c1.3,1.7,0.9,2.9-1.3,3
			c-3.9,0.1-7.8,0.1-11.8,0c-2.1-0.1-2.6-1.3-1.3-2.9c1.5-1.8,1.9-3.7,1.9-5.9c0-13.7,0-27.4,0-41.1c0-2.2-0.5-4.2-1.9-5.9
			c-1.3-1.7-0.8-2.7,1.3-2.8C222.2,2.6,225.6,2.7,229.1,2.7z M230,18L230,18c0,2.8,0,5.6,0,8.5c0,1.7,1,2.9,2.7,3.1
			c4.6,0.5,8.5-0.6,11.1-4.7c2.7-4.2,3.1-8.6,0.6-13.1c-2.5-4.2-6.4-5.6-11.1-5.3c-2.2,0.2-3.2,1.2-3.3,3.4
			C229.9,12.6,230,15.3,230,18z"/>
		<path class="st0" d="M128.9,2.6c5.3,0.1,10.6-0.5,15.8,0.9c5,1.3,9.5,3.3,12.6,7.6c4.3,5.9,3.2,14.4-2.4,19
			c-4.8,4-10.5,5.6-16.6,6c-2,0.1-4,0-6,0.1c-2.7,0.2-3.7,1.1-3.9,3.8c-0.3,4.6-0.2,9.2,0,13.8c0.1,1.7,0.9,3.1,1.9,4.5
			c1.3,1.6,0.8,2.8-1.2,2.9c-4,0.1-8,0.1-12,0c-1.9-0.1-2.4-1.3-1.2-2.8c1.5-1.9,2-4,1.9-6.3c0-13.5,0-27,0-40.5
			c0-2.3-0.4-4.3-1.9-6.1c-1.4-1.7-0.8-2.8,1.5-2.8C121.4,2.6,125.2,2.6,128.9,2.6z M128.4,19.3L128.4,19.3c0,2.1,0,4.1,0,6.2
			c0,6.4,1.1,7.4,7.5,7c5-0.3,8.8-2.5,11-7.2s1.8-9.4-1.2-13.7s-7.4-5.3-12.3-5.1c-3.7,0.1-4.8,1.1-4.9,4.8
			C128.3,13.9,128.4,16.6,128.4,19.3z"/>
		<path class="st0" d="M69.2,61.4c-1.9,0-3.7,0.1-5.6,0c-2.3-0.1-2.9-1.3-1.4-3c1.3-1.6,1.8-3.4,1.8-5.3c0-14,0-28,0-42
			c0-2.2-0.6-4-2-5.7c-1.1-1.4-0.7-2.6,0.9-2.6c9.3,0,18.7-1,28,0.9c4,0.8,7.7,2.6,10.7,5.5c6.4,6.3,5.8,16.5-1.5,21.8
			c-4.7,3.5-10.1,4.9-15.9,5.2c-2.1,0.1-4.3,0-6.4,0.2c-2.4,0.3-3.3,1.3-3.3,3.7c-0.1,4.6,0,9.2,0,13.8c0,1.8,0.9,3.1,1.9,4.5
			c1.2,1.7,0.8,2.7-1.3,2.9C73.2,61.5,71.2,61.3,69.2,61.4L69.2,61.4z M74.6,19.4c0,3.1-0.1,6.2,0,9.3c0.1,2.3,0.9,3.2,3.2,3.6
			c1.8,0.3,3.6,0.1,5.3,0c9.9-0.8,14.3-13,8.6-20.8c-3.6-4.9-9-5.6-14.7-4.7c-1.8,0.3-2.4,1.7-2.4,3.4
			C74.6,13.2,74.6,16.3,74.6,19.4z"/>
		<path class="st0" d="M40.7,28.2c0-5.6,0-11.3,0-16.9c0-2.1-0.4-3.9-1.8-5.5c-0.5-0.6-1.1-1.4-0.6-2.2c0.4-0.8,1.3-0.8,2-0.8
			c2.3,0,4.6-0.1,6.8,0.1c1.7,0.1,2.3,1.2,1.1,2.5c-1.9,2.2-2.2,4.8-2.2,7.5c0,10.4,0,20.8,0,31.2c0,10-4.8,16.1-14.6,18.4
			c-7.6,1.8-14.7,0.4-20.7-4.7c-3.4-2.9-5.2-6.7-5.3-11.2c0-11.2,0-22.5,0-33.7c0-2.7-0.3-5.3-2.2-7.5c-1-1.5-0.5-2.6,1.2-2.7
			c4.2-0.2,8.4-0.3,12.6,0c1.6,0.1,2.1,1.2,1.1,2.4c-2.1,2.3-2.2,5-2.2,7.9c0.1,10.7,0,21.4,0,32c0,5.2,2,9.4,6.7,12
			c7.9,4.3,17.8-1.4,18.1-10.5C40.8,40.4,40.7,34.3,40.7,28.2L40.7,28.2z"/>
		<path class="st0" d="M187.7,2.6c5,0,10.1,0,15.1,0c2.9,0,3.6,0.7,3.6,3.5c0,1.6,0.7,3.7-1,4.6c-1.7,0.9-2.6-1.3-3.8-2.2
			c-1.4-1.2-3-2-4.9-2c-3.3,0-6.6-0.1-9.9,0c-3.1,0.1-4.3,1.3-4.3,4.3c-0.1,4.3-0.1,8.7,0,13c0.1,3,1.2,4.1,4.2,4.2c1.5,0,3,0,4.5,0
			c2.1,0.1,3.9-0.5,5.5-1.8c1.7-1.4,2.9-0.9,3,1.2c0.1,1.8,0.1,3.6,0,5.4c-0.1,1.9-1.3,2.5-2.8,1.3c-3.7-3.1-8-1.9-12.1-1.7
			c-1.7,0.1-2.3,1.7-2.4,3.2c-0.1,6.1-0.1,12.3,0,18.4c0,2.3,1.2,3.4,3.6,3.4c3.7,0.1,7.4,0,11.2,0c1.6,0,2.9-0.7,4.1-1.8
			c0.8-0.7,1.5-1.5,2.3-2.1c1.3-1,2.2-0.6,2.5,1s0.3,3.2,0,4.7c-0.3,1.7-1.6,2.1-3.1,2.2c-2.7,0-5.4,0-8.1,0c-7.2,0-14.3,0-21.5,0
			c-0.8,0-1.7,0-2.5-0.1c-1.6-0.3-2-1.3-1-2.5c1.8-2.1,2-4.6,2-7.2c0-13.2,0-26.5,0-39.7c0-2.3-0.4-4.5-2-6.3c-0.5-0.6-1-1.2-0.6-2
			s1.2-0.8,2-0.8C176.9,2.6,182.3,2.6,187.7,2.6L187.7,2.6z"/>
	</g>
	<g>
		<path class="st0" d="M32.1,86.4c2,0,4-0.1,6,0s2.5,1.1,1.3,2.6c-1.5,2-1.6,4-0.9,6.2c2.8,9.2,5.4,18.5,8.2,27.7
			c0.3,0.9,0.5,1.9,1,2.7c0.9,1.8,2.4,1.8,3.4,0.1c0.5-0.8,0.8-1.8,1-2.7c2.1-6.7,4.1-13.4,6.2-20.1c1.6-4.8,0-8.9-2.5-12.9
			c-0.4-0.6-0.9-1.1-1.2-1.7c-0.5-1-0.2-1.9,1-2c4.5-0.3,9.1-0.3,13.6,0c1.3,0.1,1.9,1.2,1,2.2c-2.1,2.5-1.6,5-0.8,7.8
			c2.6,8.8,5.2,17.6,7.8,26.3c0.3,1.1,0.7,2.3,1.3,3.3c0.8,1.4,2.1,1.4,3,0.1c0.5-0.7,0.8-1.6,1.1-2.4c2.9-9.5,5.8-19.1,8.7-28.6
			c0.7-2.2,0.5-4.1-0.9-6c-1.2-1.5-0.7-2.5,1.2-2.6c2.4-0.1,4.8-0.1,7.2,0c1.7,0.1,2.2,1.2,1.1,2.5c-2.2,2.5-3.1,5.5-4.1,8.5
			c-4.8,14.7-9.6,29.5-14.4,44.2c-0.6,1.8-1.4,3.3-3.6,3.5c-2.6,0.2-3.9-0.6-4.8-3.2c-2.1-6.5-4.1-13-6.2-19.5
			c-0.9-2.7-1.7-5.4-2.6-8.1c-0.4-1.1-0.8-2.4-2.2-2.4c-1.4,0-1.9,1.3-2.2,2.4c-3,9.1-6,18.2-9,27.3c-0.5,1.6-1.2,3.1-3.1,3.4
			c-2.7,0.5-4.3-0.4-5.2-3.1c-2.5-7.7-4.9-15.5-7.4-23.2c-2.5-7.8-5-15.6-7.4-23.4c-0.7-2.1-1.4-4.2-3-5.8c-0.6-0.6-1.1-1.3-0.7-2.2
			s1.4-0.8,2.2-0.9C28.1,86.3,30.1,86.3,32.1,86.4C32.1,86.3,32.1,86.4,32.1,86.4z"/>
		<path class="st0" d="M127.9,86.3c5,0,9.9,0,14.9,0c3.2,0,3.9,0.7,3.9,3.9c0,1.5,0.7,3.6-1.1,4.3c-1.6,0.6-2.6-1.3-3.6-2.2
			c-1.4-1.3-3.1-2-5-2.1c-3.2,0-6.5-0.1-9.7,0c-3,0.1-4.2,1.1-4.3,4.1c-0.2,4.5-0.2,9,0,13.4c0.1,3.1,1.2,3.9,4.3,4
			c1.4,0,2.9,0,4.3,0c2.1,0.1,3.9-0.4,5.5-1.9c0.6-0.5,1.2-1,2-0.7c0.9,0.4,0.9,1.3,1,2.1c0,1.8,0.1,3.6,0,5.4
			c-0.1,1.7-1.3,2.3-2.5,1.2c-3.6-3.2-7.8-2-11.8-2c-1.4,0-2.4,1.1-2.6,2.5c-0.1,0.8-0.3,1.6-0.3,2.5c0,5-0.1,10.1,0,15.1
			c0.1,4.2,1,5.1,5.1,5.1c2.6,0,5.2-0.1,7.8,0c2.9,0.1,5.2-0.8,7.2-2.9c0.7-0.8,1.5-1.9,2.7-1.3c1.1,0.5,0.9,1.7,1,2.8
			c0,0.7,0,1.4,0,2.1c-0.1,2.4-1,3.4-3.4,3.4c-10.2,0-20.4,0-30.6,0c-0.9,0-2,0-2.6-0.9c-0.5-1,0.3-1.7,0.8-2.4
			c1-1.3,1.5-2.8,1.5-4.4c0-14.3,0-28.6,0-43c0-1.9-0.5-3.5-1.8-4.9c-0.5-0.6-1.1-1.3-0.7-2.2s1.3-0.9,2.1-0.9
			C117.3,86.3,122.6,86.3,127.9,86.3L127.9,86.3z"/>
		<path class="st0" d="M171.7,85.8c4.6,0.1,9,1.1,13.5,1.9c2.1,0.4,2.6,1.5,1.7,3.5c-0.4,0.9-0.9,1.7-1.4,2.5
			c-1.5,2.5-2.6,2.6-4.6,0.4c-1.3-1.4-2.6-2.9-4.2-3.9c-5.4-3.4-13,0.1-13.5,6.3c-0.3,3.4,1.3,6.1,3.9,8.3c3.1,2.6,6.7,4.4,10,6.5
			c2.3,1.5,4.7,2.9,7,4.4c5.5,3.5,7.5,8.8,6.9,15.1c-0.6,6.5-3.9,11.2-10.1,13.7c-5.4,2.2-11.1,1.7-16.7,1c-2.5-0.3-5-0.8-7.5-1.3
			s-3-1.5-1.9-3.8c0.7-1.4,1.4-2.7,2.2-4c0.8-1.2,1.9-1.4,3-0.3c1.1,1.1,2.2,2.3,3.2,3.5c3.5,3.9,8,5,12.3,3s6.5-6.5,5.8-11.5
			c-0.4-3-2.2-5.1-4.7-6.7c-4.7-2.9-9.5-5.8-14.2-8.8c-3.9-2.5-6.9-5.8-8-10.6c-2.2-9.5,3.9-18,13.6-18.9
			C169,85.9,170.4,85.9,171.7,85.8z"/>
		<path class="st0" d="M223.6,116c0,6.8,0,13.5,0,20.3c0,2.2,0.4,4.1,1.9,5.7c0.5,0.6,1.2,1.3,0.7,2.2c-0.5,0.8-1.4,0.9-2.2,0.9
			c-3.7,0-7.4,0-11.2,0c-0.8,0-1.7-0.1-2.1-1c-0.5-0.9,0.2-1.6,0.7-2.2c1.5-1.7,1.8-3.7,1.8-5.8c0-13.6,0-27.1,0-40.7
			c0-4.2-1.1-5.1-5.3-5.3c-3.2-0.1-5.8,0.7-7.9,3.2c-0.6,0.8-1.5,1.7-2.6,1.2s-0.9-1.7-1-2.7c0-0.1,0-0.1,0-0.2
			c-0.1-4.8,0.3-5.3,5-5.3c11.5,0,23,0,34.5,0c4.2,0,6.3,3.6,4.3,7.5c-0.4,0.8-1,1.1-1.8,0.7c-0.5-0.3-1-0.6-1.3-1
			c-2.2-2.8-5.2-3.5-8.7-3.3c-3.6,0.2-4.7,1.2-4.7,4.7C223.6,101.9,223.6,108.9,223.6,116z"/>
	</g>
</g>
</svg>
